<mxfile host="app.diagrams.net" modified="2023-03-23T06:53:32.551Z" agent="5.0 (Windows)" etag="hBblj0toOUPbRaOx0YvG" version="21.0.10" type="github">
  <diagram name="Page-1" id="MvgjNugQbTfpoulVQ2YX">
    <mxGraphModel dx="1114" dy="559" grid="1" gridSize="10" guides="1" tooltips="1" connect="1" arrows="1" fold="1" page="1" pageScale="1" pageWidth="827" pageHeight="1169" math="0" shadow="0">
      <root>
        <mxCell id="0" />
        <mxCell id="1" parent="0" />
        <mxCell id="4oqKoZF-4UbTQeLsqpPX-16" style="edgeStyle=orthogonalEdgeStyle;rounded=0;orthogonalLoop=1;jettySize=auto;html=1;exitX=0.5;exitY=1;exitDx=0;exitDy=0;exitPerimeter=0;" edge="1" parent="1" source="4oqKoZF-4UbTQeLsqpPX-1" target="4oqKoZF-4UbTQeLsqpPX-2">
          <mxGeometry relative="1" as="geometry" />
        </mxCell>
        <mxCell id="4oqKoZF-4UbTQeLsqpPX-1" value="&lt;div&gt;Start&lt;/div&gt;" style="strokeWidth=2;html=1;shape=mxgraph.flowchart.start_1;whiteSpace=wrap;" vertex="1" parent="1">
          <mxGeometry x="350" y="10" width="100" height="60" as="geometry" />
        </mxCell>
        <mxCell id="4oqKoZF-4UbTQeLsqpPX-19" style="edgeStyle=orthogonalEdgeStyle;rounded=0;orthogonalLoop=1;jettySize=auto;html=1;exitX=0.5;exitY=1;exitDx=0;exitDy=0;" edge="1" parent="1" source="4oqKoZF-4UbTQeLsqpPX-2" target="4oqKoZF-4UbTQeLsqpPX-7">
          <mxGeometry relative="1" as="geometry" />
        </mxCell>
        <mxCell id="4oqKoZF-4UbTQeLsqpPX-2" value="Buka Browser" style="rounded=1;whiteSpace=wrap;html=1;absoluteArcSize=1;arcSize=14;strokeWidth=2;" vertex="1" parent="1">
          <mxGeometry x="348" y="100" width="105" height="50" as="geometry" />
        </mxCell>
        <mxCell id="4oqKoZF-4UbTQeLsqpPX-20" style="edgeStyle=orthogonalEdgeStyle;rounded=0;orthogonalLoop=1;jettySize=auto;html=1;exitX=0.5;exitY=1;exitDx=0;exitDy=0;" edge="1" parent="1" source="4oqKoZF-4UbTQeLsqpPX-7" target="4oqKoZF-4UbTQeLsqpPX-9">
          <mxGeometry relative="1" as="geometry" />
        </mxCell>
        <mxCell id="4oqKoZF-4UbTQeLsqpPX-7" value="Ketik OneDrive di Search Engine" style="rounded=1;whiteSpace=wrap;html=1;absoluteArcSize=1;arcSize=14;strokeWidth=2;" vertex="1" parent="1">
          <mxGeometry x="348" y="180" width="105" height="50" as="geometry" />
        </mxCell>
        <mxCell id="4oqKoZF-4UbTQeLsqpPX-21" style="edgeStyle=orthogonalEdgeStyle;rounded=0;orthogonalLoop=1;jettySize=auto;html=1;exitX=0.5;exitY=1;exitDx=0;exitDy=0;entryX=0.5;entryY=0;entryDx=0;entryDy=0;" edge="1" parent="1" source="4oqKoZF-4UbTQeLsqpPX-9" target="4oqKoZF-4UbTQeLsqpPX-11">
          <mxGeometry relative="1" as="geometry" />
        </mxCell>
        <mxCell id="4oqKoZF-4UbTQeLsqpPX-9" value="Pilih Url OneDrive" style="rounded=1;whiteSpace=wrap;html=1;absoluteArcSize=1;arcSize=14;strokeWidth=2;" vertex="1" parent="1">
          <mxGeometry x="348" y="260" width="105" height="50" as="geometry" />
        </mxCell>
        <mxCell id="4oqKoZF-4UbTQeLsqpPX-22" style="edgeStyle=orthogonalEdgeStyle;rounded=0;orthogonalLoop=1;jettySize=auto;html=1;exitX=0.5;exitY=1;exitDx=0;exitDy=0;entryX=0.5;entryY=0;entryDx=0;entryDy=0;entryPerimeter=0;" edge="1" parent="1" source="4oqKoZF-4UbTQeLsqpPX-11" target="4oqKoZF-4UbTQeLsqpPX-12">
          <mxGeometry relative="1" as="geometry" />
        </mxCell>
        <mxCell id="4oqKoZF-4UbTQeLsqpPX-11" value="Login OneDrive Dengan Email Chemco" style="rounded=1;whiteSpace=wrap;html=1;absoluteArcSize=1;arcSize=14;strokeWidth=2;" vertex="1" parent="1">
          <mxGeometry x="350" y="340" width="105" height="50" as="geometry" />
        </mxCell>
        <mxCell id="4oqKoZF-4UbTQeLsqpPX-23" style="edgeStyle=orthogonalEdgeStyle;rounded=0;orthogonalLoop=1;jettySize=auto;html=1;exitX=0.5;exitY=1;exitDx=0;exitDy=0;exitPerimeter=0;" edge="1" parent="1" source="4oqKoZF-4UbTQeLsqpPX-12" target="4oqKoZF-4UbTQeLsqpPX-13">
          <mxGeometry relative="1" as="geometry" />
        </mxCell>
        <mxCell id="4oqKoZF-4UbTQeLsqpPX-27" value="&lt;div&gt;Yes&lt;/div&gt;" style="edgeLabel;html=1;align=center;verticalAlign=middle;resizable=0;points=[];" vertex="1" connectable="0" parent="4oqKoZF-4UbTQeLsqpPX-23">
          <mxGeometry x="-0.3611" relative="1" as="geometry">
            <mxPoint as="offset" />
          </mxGeometry>
        </mxCell>
        <mxCell id="4oqKoZF-4UbTQeLsqpPX-25" style="edgeStyle=orthogonalEdgeStyle;rounded=0;orthogonalLoop=1;jettySize=auto;html=1;exitX=0;exitY=0.5;exitDx=0;exitDy=0;exitPerimeter=0;entryX=0;entryY=0.5;entryDx=0;entryDy=0;" edge="1" parent="1" source="4oqKoZF-4UbTQeLsqpPX-12" target="4oqKoZF-4UbTQeLsqpPX-11">
          <mxGeometry relative="1" as="geometry" />
        </mxCell>
        <mxCell id="4oqKoZF-4UbTQeLsqpPX-26" value="No" style="edgeLabel;html=1;align=center;verticalAlign=middle;resizable=0;points=[];" vertex="1" connectable="0" parent="4oqKoZF-4UbTQeLsqpPX-25">
          <mxGeometry x="0.2182" y="2" relative="1" as="geometry">
            <mxPoint x="2" as="offset" />
          </mxGeometry>
        </mxCell>
        <mxCell id="4oqKoZF-4UbTQeLsqpPX-12" value="Berhasil Login?" style="strokeWidth=2;html=1;shape=mxgraph.flowchart.decision;whiteSpace=wrap;" vertex="1" parent="1">
          <mxGeometry x="355" y="420" width="100" height="100" as="geometry" />
        </mxCell>
        <mxCell id="4oqKoZF-4UbTQeLsqpPX-24" style="edgeStyle=orthogonalEdgeStyle;rounded=0;orthogonalLoop=1;jettySize=auto;html=1;exitX=0.5;exitY=1;exitDx=0;exitDy=0;entryX=0.5;entryY=0;entryDx=0;entryDy=0;entryPerimeter=0;" edge="1" parent="1" source="4oqKoZF-4UbTQeLsqpPX-13" target="4oqKoZF-4UbTQeLsqpPX-15">
          <mxGeometry relative="1" as="geometry" />
        </mxCell>
        <mxCell id="4oqKoZF-4UbTQeLsqpPX-13" value="Tampil Halaman OneDrive" style="rounded=1;whiteSpace=wrap;html=1;absoluteArcSize=1;arcSize=14;strokeWidth=2;" vertex="1" parent="1">
          <mxGeometry x="352.5" y="560" width="105" height="50" as="geometry" />
        </mxCell>
        <mxCell id="4oqKoZF-4UbTQeLsqpPX-15" value="&lt;div&gt;End&lt;/div&gt;" style="strokeWidth=2;html=1;shape=mxgraph.flowchart.start_1;whiteSpace=wrap;" vertex="1" parent="1">
          <mxGeometry x="352.5" y="640" width="100" height="60" as="geometry" />
        </mxCell>
      </root>
    </mxGraphModel>
  </diagram>
</mxfile>
